<svg width="616" height="440" viewBox="0 0 616 440" fill="none" xmlns="http://www.w3.org/2000/svg">
<path d="M205.495 7.72497L178.675 18.9758L202.624 34.8204L205.495 7.72497ZM275.126 -55.6941C273.97 -54.9504 273.684 -53.481 274.489 -52.4122C275.293 -51.3433 276.883 -51.0796 278.039 -51.8233L275.126 -55.6941ZM321.05 -75.614C383.869 -105.25 449.593 -115.82 505.011 -109.06C560.441 -102.298 605.296 -78.258 627.025 -38.8988L631.569 -41.0424C608.858 -82.1794 562.231 -106.836 505.678 -113.735C449.113 -120.635 382.353 -109.829 318.731 -79.8141L321.05 -75.614ZM627.025 -38.8988C648.754 0.460485 643.495 48.1433 616.895 93.6045C590.301 139.055 542.479 182.052 479.66 211.689L481.979 215.889C545.6 185.874 594.237 142.24 621.382 95.8476C648.52 49.466 654.279 0.0946702 631.569 -41.0424L627.025 -38.8988ZM479.66 211.689C416.84 241.325 351.116 251.895 295.699 245.135C240.269 238.373 195.414 214.333 173.685 174.974L169.141 177.117C191.851 218.254 238.479 242.911 295.031 249.81C351.597 256.71 418.357 245.904 481.979 215.889L479.66 211.689ZM173.685 174.974C149.358 130.908 158.864 76.3843 194.264 26.2768L189.993 23.6986C153.974 74.6821 143.709 131.05 169.141 177.117L173.685 174.974ZM278.039 -51.8233C291.435 -60.4385 305.802 -68.4206 321.05 -75.614L318.731 -79.8141C303.279 -72.524 288.713 -64.432 275.126 -55.6941L278.039 -51.8233Z" fill="#FF7237"/>
<path d="M496.162 232.315C362.098 295.563 215.22 277.646 168.101 192.295C151.398 162.039 149.473 127.37 159.921 92.4013" stroke="#FF7237" stroke-width="4.91188" stroke-linecap="round"/>
</svg>
