<svg width="188" height="141" viewBox="0 0 188 141" fill="none" xmlns="http://www.w3.org/2000/svg">
<path d="M71.1173 -17.1534L62.2044 -13.854L69.5565 -7.8425L71.1173 -17.1534ZM95.8604 -38.2617C95.4703 -38.0294 95.3446 -37.5272 95.5795 -37.1399C95.8144 -36.7526 96.321 -36.6269 96.7111 -36.8592L95.8604 -38.2617ZM111.624 -44.4091C133.284 -53.6065 155.461 -55.9145 173.791 -52.2496C192.124 -48.5839 206.524 -38.9691 212.842 -24.3847L214.357 -25.0279C207.763 -40.2486 192.806 -50.1153 174.114 -53.8527C155.417 -57.5909 132.9 -55.2237 110.973 -45.9127L111.624 -44.4091ZM212.842 -24.3847C219.161 -9.80032 216.272 7.15571 206.318 22.8329C196.367 38.5065 179.392 52.8237 157.732 62.0211L158.384 63.5246C180.311 54.2137 197.563 39.6939 207.714 23.7062C217.862 7.72216 220.951 -9.80723 214.357 -25.0279L212.842 -24.3847ZM157.732 62.0211C136.073 71.2185 113.895 73.5264 95.5659 69.8616C77.2325 66.1959 62.8326 56.5811 56.5143 41.9967L54.9996 42.6399C61.5936 57.8605 76.5507 67.7272 95.243 71.4646C113.94 75.2029 136.456 72.8356 158.384 63.5246L157.732 62.0211ZM56.5143 41.9967C49.4128 25.6045 53.9447 6.20703 67.062 -10.9847L65.7465 -11.9731C52.4087 5.50766 47.5864 25.5281 54.9996 42.6399L56.5143 41.9967ZM96.7111 -36.8592C101.385 -39.6422 106.367 -42.1767 111.624 -44.4091L110.973 -45.9127C105.647 -43.6512 100.598 -41.083 95.8604 -38.2617L96.7111 -36.8592Z" fill="#FF7237"/>
<path d="M162.709 69.7485C116.499 89.3705 67.9417 79.6617 54.2525 48.0631C49.3998 36.8616 49.5802 24.413 53.8938 12.1351" stroke="#FF7237" stroke-width="1.64208" stroke-linecap="round"/>
</svg>
