<svg width="95" height="101" viewBox="0 18 95 101" fill="none" xmlns="http://www.w3.org/2000/svg">
<path d="M22.1173 18.8466L13.2044 22.146L20.5565 28.1575L22.1173 18.8466ZM46.8604 -2.26165C46.4703 -2.0294 46.3446 -1.52716 46.5795 -1.13988C46.8144 -0.752594 47.321 -0.626925 47.7111 -0.85918L46.8604 -2.26165ZM62.6242 -8.40914C84.284 -17.6065 106.461 -19.9145 124.791 -16.2496C143.124 -12.5839 157.524 -2.96913 163.842 11.6153L165.357 10.9721C158.763 -4.2486 143.806 -14.1153 125.114 -17.8527C106.417 -21.5909 83.9002 -19.2237 61.9729 -9.91269L62.6242 -8.40914ZM163.842 11.6153C170.161 26.1997 167.272 43.1557 157.318 58.8329C147.367 74.5065 130.392 88.8237 108.732 98.0211L109.384 99.5246C131.311 90.2137 148.563 75.6939 158.714 59.7062C168.862 43.7222 171.951 26.1928 165.357 10.9721L163.842 11.6153ZM108.732 98.0211C87.0726 107.218 64.8951 109.526 46.5659 105.862C28.2325 102.196 13.8326 92.5811 7.5143 77.9967L5.9996 78.6399C12.5936 93.8605 27.5507 103.727 46.243 107.465C64.9395 111.203 87.4565 108.836 109.384 99.5246L108.732 98.0211ZM7.5143 77.9967C0.412816 61.6045 4.94468 42.207 18.062 25.0153L16.7465 24.0269C3.40867 41.5077 -1.41362 61.5281 5.9996 78.6399L7.5143 77.9967ZM47.7111 -0.85918C52.3845 -3.64216 57.3669 -6.17671 62.6242 -8.40914L61.9729 -9.91269C56.6471 -7.65123 51.5982 -5.08296 46.8604 -2.26165L47.7111 -0.85918Z" fill="#FF7237"/>
<path d="M66.7287 -17.2092C93.974 -28.7783 122.085 -29.5374 142.487 -21.201" stroke="#FF7237" stroke-width="1.64208" stroke-linecap="round"/>
<path d="M113.709 105.749C67.4995 125.371 18.9417 115.662 5.25251 84.0631C0.399758 72.8616 0.580225 60.413 4.89379 48.1351" stroke="#FF7237" stroke-width="1.64208" stroke-linecap="round"/>
</svg>
