<svg width="204" height="110" viewBox="0 0 204 110" fill="none" xmlns="http://www.w3.org/2000/svg">
<path d="M103.285 51.1849L90.608 48.9753L98.9095 39.1646L103.285 51.1849ZM141.37 73.2153C140.794 73.0013 140.503 72.363 140.72 71.7896C140.938 71.2162 141.581 70.9248 142.158 71.1388L141.37 73.2153ZM163.84 77.5442C194.896 84.4986 224.945 82.1757 248.408 72.8539C271.877 63.53 288.651 47.26 293.46 26.354L295.635 26.8409C290.615 48.6638 273.159 65.4051 249.23 74.9115C225.297 84.4202 194.782 86.7467 163.343 79.7065L163.84 77.5442ZM293.46 26.354C298.27 5.44808 290.258 -16.3722 273.168 -34.7784C256.082 -53.1802 229.994 -68.074 198.938 -75.0284L199.435 -77.1906C230.874 -70.1504 257.381 -55.0551 274.81 -36.2843C292.234 -17.5178 300.655 5.01803 295.635 26.8409L293.46 26.354ZM198.938 -75.0284C167.881 -81.9828 137.832 -79.6598 114.369 -70.3381C90.9003 -61.0142 74.1262 -44.7442 69.3171 -23.8382L67.1427 -24.3251C72.1628 -46.148 89.6189 -62.8893 113.547 -72.3957C137.481 -81.9044 167.995 -84.2309 199.435 -77.1906L198.938 -75.0284ZM69.3171 -23.8382C63.913 -0.34604 74.7038 24.3126 96.3625 43.96L94.8556 45.5991C72.8329 25.6216 61.5001 0.203782 67.1427 -24.3251L69.3171 -23.8382ZM142.158 71.1388C149.055 73.7001 156.302 75.8562 163.84 77.5442L163.343 79.7065C155.706 77.9965 148.363 75.8118 141.37 73.2153L142.158 71.1388Z" fill="#FF7237"/>
<path d="M171.46 88.2398C210.525 96.9874 248.08 91.1655 273.149 75.1345" stroke="#FF7237" stroke-width="2.22348" stroke-linecap="round"/>
<path d="M203.651 -86.5066C137.395 -101.343 75.236 -76.6481 64.8153 -31.3482C61.1212 -15.2896 64.4248 1.20259 73.1805 16.4639" stroke="#FF7237" stroke-width="2.22348" stroke-linecap="round"/>
</svg>
